<svg id="svg" version="1.1" xmlns="http://www.w3.org/2000/svg" xmlns:xlink="http://www.w3.org/1999/xlink" width="400" height="400" viewBox="0, 0, 400,400"><g id="svgg"><path id="path0" d="M25.000 2.289 C 25.000 4.455,56.057 356.972,56.453 359.306 C 56.649 360.460,196.116 399.957,200.000 399.959 C 205.101 399.961,343.358 360.443,343.557 358.925 C 344.087 354.885,375.000 4.263,375.000 2.286 L 375.000 0.000 200.000 0.000 L 25.000 0.000 25.000 2.289 M310.156 75.294 C 310.156 75.886,306.278 119.743,301.538 172.755 C 296.797 225.767,292.349 275.675,291.653 283.661 L 290.387 298.182 245.887 310.474 C 221.413 317.235,200.812 322.797,200.108 322.835 C 199.404 322.873,178.769 317.344,154.252 310.550 L 109.676 298.196 106.586 263.356 L 103.496 228.516 124.912 228.308 C 136.692 228.193,146.488 228.259,146.682 228.453 C 146.876 228.646,147.753 236.826,148.631 246.629 C 149.509 256.432,150.286 264.534,150.359 264.633 C 150.431 264.732,161.603 267.820,175.185 271.496 L 199.879 278.179 224.717 271.474 C 238.378 267.786,249.605 264.697,249.666 264.611 C 249.816 264.399,256.285 204.509,256.266 203.516 C 256.256 203.000,229.874 202.734,178.715 202.734 L 101.181 202.734 99.045 182.469 C 97.871 171.324,96.990 162.144,97.088 162.070 C 97.186 161.996,133.823 161.510,178.505 160.991 C 223.186 160.472,259.831 159.961,259.936 159.855 C 260.164 159.628,263.267 119.255,263.275 116.406 L 263.282 114.453 177.863 114.684 L 92.444 114.914 91.516 101.402 C 91.007 93.971,90.371 84.814,90.104 81.055 L 89.620 74.219 199.888 74.219 C 292.992 74.219,310.156 74.386,310.156 75.294 " stroke="none" fill="#000000" fill-rule="evenodd"></path></g></svg>