<svg id="svg" version="1.1" xmlns="http://www.w3.org/2000/svg" xmlns:xlink="http://www.w3.org/1999/xlink" width="400" height="400" viewBox="0, 0, 400,400"><g id="svgg"><path id="path0" d="M180.078 4.760 C 108.978 12.110,46.757 56.778,17.747 121.297 C -26.943 220.690,14.485 337.505,111.328 385.167 C 134.456 396.550,142.663 398.321,147.924 393.063 L 150.391 390.598 150.636 370.973 L 150.882 351.348 146.730 351.944 C 114.987 356.504,94.455 348.269,84.420 326.953 C 82.599 323.086,80.397 318.407,79.525 316.555 C 75.632 308.283,69.600 301.087,61.943 295.582 C 53.044 289.183,51.598 286.496,56.052 284.635 C 66.082 280.444,82.747 289.573,92.450 304.572 C 105.133 324.178,123.612 330.633,145.426 323.077 L 151.398 321.008 151.946 317.353 C 153.093 309.702,156.878 301.766,161.985 296.301 C 164.916 293.163,165.392 293.455,154.724 291.847 C 102.556 283.983,77.371 257.163,73.369 205.211 C 71.530 181.334,76.854 161.396,89.143 146.146 C 93.529 140.703,93.502 140.911,90.994 132.031 C 88.274 122.402,89.476 105.610,93.832 92.383 L 95.440 87.500 99.478 87.505 C 110.553 87.520,127.453 94.219,145.431 105.719 L 149.710 108.456 154.347 107.353 C 184.607 100.151,214.713 100.056,244.092 107.068 L 250.294 108.548 255.420 105.283 C 272.795 94.217,289.735 87.542,300.522 87.512 L 304.560 87.500 306.168 92.383 C 310.984 107.006,311.805 120.715,308.639 133.648 L 306.809 141.123 310.831 146.114 C 323.148 161.399,328.432 181.165,326.637 205.234 C 322.755 257.285,297.740 283.795,244.922 291.833 C 234.536 293.414,235.080 292.927,238.881 297.245 C 242.230 301.050,245.112 306.537,247.344 313.362 C 248.553 317.056,248.778 322.096,249.166 354.088 L 249.609 390.597 252.095 393.081 C 256.171 397.156,260.717 397.080,271.889 392.750 C 379.524 351.032,429.870 227.200,382.253 121.297 C 347.381 43.740,264.599 -3.977,180.078 4.760 " stroke="none" fill="#000000" fill-rule="evenodd"></path></g></svg>